<?xml version="1.0" standalone="no"?>
<!DOCTYPE svg PUBLIC "-//W3C//DTD SVG 1.1//EN" "http://www.w3.org/Graphics/SVG/1.1/DTD/svg11.dtd" >
<svg>
<metadata>
Created by FontForge 20090622 at Thu Feb 20 09:56:06 2020
 By deploy user
Copyright &#194;&#169; 1988, 1995, 2002 Adobe Systems Incorporated.  All Rights Reserved. &#194;&#169; 1981, 1995, 2002 Heidelberger Druckmaschinen AG. All rights reserved.
</metadata>
<defs>
<font id="PeignotLTStd-Bold" horiz-adv-x="278" >
  <font-face 
    font-family="Peignot LT Std Demi"
    font-weight="700"
    font-stretch="normal"
    units-per-em="1000"
    panose-1="0 0 8 0 0 0 0 0 0 0"
    ascent="714"
    descent="-286"
    x-height="434"
    cap-height="648"
    bbox="-167 -250 1000 908"
    underline-thickness="50"
    underline-position="-50"
    unicode-range="U+0020-U+FB02"
  />
<missing-glyph horiz-adv-x="500" 
d="M0 0v700h500v-700h-500zM250 395l170 255h-340zM280 350l170 -255v510zM80 50h340l-170 255zM50 605v-510l170 255z" />
    <glyph glyph-name="fi" unicode="fi" horiz-adv-x="611" 
d="M472 683q30 0 52 -22t22 -52t-22 -52t-52 -22t-52 22t-22 52t22 52t52 22zM544 0h-144v434h144v-434zM216 0h-144v585q0 55 32 85t91 30h144v-64h-87q-17 0 -25.5 -9.5t-9.5 -19t-1 -27.5v-146h107v-70h-107v-364z" />
    <glyph glyph-name="fl" unicode="fl" horiz-adv-x="611" 
d="M396 700h144v-576q0 -35 7.5 -47.5t30.5 -12.5h61v-64h-143q-100 0 -100 87v613zM216 0h-144v585q0 55 32 85t91 30h144v-64h-87q-17 0 -25.5 -9.5t-9.5 -19t-1 -27.5v-146h107v-70h-107v-364z" />
    <glyph glyph-name=".notdef" horiz-adv-x="500" 
d="M0 0v700h500v-700h-500zM250 395l170 255h-340zM280 350l170 -255v510zM80 50h340l-170 255zM50 605v-510l170 255z" />
    <glyph glyph-name=".null" horiz-adv-x="0" 
 />
    <glyph glyph-name="nonmarkingreturn" horiz-adv-x="333" 
 />
    <glyph glyph-name="space" unicode=" " horiz-adv-x="305" 
 />
    <glyph glyph-name="exclam" unicode="!" 
d="M163 178h-22l-60 358q-8 54 -8 66q0 36 21 57.5t58 21.5t58 -21.5t21 -57.5q0 -12 -8 -66zM152 153q33 0 56.5 -24t23.5 -59q0 -32 -23.5 -54.5t-56.5 -22.5q-34 0 -57 22.5t-23 54.5q0 35 23 59t57 24z" />
    <glyph glyph-name="quotedbl" unicode="&#x22;" horiz-adv-x="333" 
d="M198 377v271h112v-271h-112zM24 377v271h112v-271h-112z" />
    <glyph glyph-name="numbersign" unicode="#" horiz-adv-x="611" 
d="M513 276v-86h-87l-27 -190h-89l25 190h-91l-27 -190h-89l26 190h-84v86h96l16 114h-84v86h95l27 190h90l-26 -190h91l27 190h89l-25 -190h75v-86h-87l-16 -114h75zM364 390h-92l-16 -114h92z" />
    <glyph glyph-name="dollar" unicode="$" horiz-adv-x="611" 
d="M303 436l25 154q-76 0 -76 -84q0 -40 51 -70zM312 226l-24 -150q35 2 55.5 23.5t20.5 55.5q0 41 -52 71zM525 546l-73 -54q-42 73 -81 90l-27 -166l28 -11.5t30.5 -13.5t28.5 -14t29.5 -17.5t24.5 -19.5t23 -24.5l16 -29t12.5 -35.5t3.5 -41q0 -102 -65.5 -161
t-168.5 -59q-22 0 -32 1l-13 -77h-44l14 83q-103 22 -160 125l91 54q34 -72 83 -92l27 163q-86 39 -112 58q-78 55 -78 148q0 100 62 161.5t162 61.5q14 0 36 -2l10 60h44l-11 -68q84 -24 140 -120z" />
    <glyph glyph-name="percent" unicode="%" horiz-adv-x="889" 
d="M687 295q-34 0 -47 -38.5t-13 -84.5q0 -28 3.5 -52.5t18 -48t38.5 -23.5t38.5 23.5t18 48t3.5 52.5t-3.5 52t-18 47.5t-38.5 23.5zM686 353q75 0 129.5 -55t54.5 -130t-54 -126.5t-130 -51.5q-75 0 -128.5 51.5t-53.5 126.5t53.5 130t128.5 55zM246 -10h-74l470 686h74z
M201 676q75 0 129.5 -55t54.5 -130t-54 -126.5t-130 -51.5q-75 0 -128.5 51.5t-53.5 126.5t53.5 130t128.5 55zM202 618q-34 0 -47 -38.5t-13 -84.5q0 -28 3.5 -52.5t18 -48t38.5 -23.5t38.5 23.5t18 48t3.5 52.5t-3.5 52t-18 47.5t-38.5 23.5z" />
    <glyph glyph-name="ampersand" unicode="&#x26;" horiz-adv-x="685" 
d="M580 170l113 -170h-213l-19 27q-65 -45 -170 -45q-100 0 -172.5 54t-72.5 151q0 36 8.5 63.5t28 49.5t35.5 35t47 33.5t46 32.5q-8 14 -25 37.5t-27 41.5t-10 33q0 68 56 110.5t126 42.5q60 0 99.5 -35t39.5 -85q0 -28 -9.5 -54t-18 -40t-28.5 -41l118 -174q21 41 21 102
q0 17 -2 57h63q5 -65 5 -72q0 -47 -8.5 -77.5t-30.5 -76.5zM417 101l-142 207q-53 -36 -53 -87q0 -52 40.5 -94t93.5 -42q32 0 61 16zM303 572l53 -78q15 6 25 22t10 29q0 23 -11 37.5t-33 14.5q-10 0 -25 -8t-19 -17z" />
    <glyph glyph-name="quotesingle" unicode="'" horiz-adv-x="222" 
d="M55 377v271h112v-271h-112z" />
    <glyph glyph-name="parenleft" unicode="(" horiz-adv-x="389" 
d="M302 700v-38q-44 -25 -71.5 -115t-34.5 -169t-7 -153t7 -153t34.5 -169t71.5 -115v-38q-82 25 -141.5 108t-84.5 178t-25 189t25 189t84.5 178t141.5 108z" />
    <glyph glyph-name="parenright" unicode=")" horiz-adv-x="389" 
d="M87 -250v38q44 25 71.5 115t34.5 169t7 153t-7 153t-34.5 169t-71.5 115v38q82 -25 141.5 -108t84.5 -178t25 -189t-25 -189t-84.5 -178t-141.5 -108z" />
    <glyph glyph-name="asterisk" unicode="*" horiz-adv-x="463" 
d="M299 292l-65 148l-64 -148l-87 62l118 105l-155 10l26 102l139 -76l-34 153h110l-37 -153l140 75l27 -104l-157 -7l118 -98z" />
    <glyph glyph-name="plus" unicode="+" horiz-adv-x="600" 
d="M83 169v96h169v169h96v-169h169v-96h-169v-169h-96v169h-169z" />
    <glyph glyph-name="comma" unicode="," horiz-adv-x="305" 
d="M61 -198h-15l17 262q2 37 24.5 65.5t57.5 28.5q34 0 56 -20.5t22 -54.5q0 -35 -19 -63z" />
    <glyph glyph-name="hyphen" unicode="-" horiz-adv-x="333" 
d="M289 234l-245 -130v96l245 130v-96z" />
    <glyph glyph-name="period" unicode="." horiz-adv-x="305" 
d="M153 153q33 0 56.5 -24t23.5 -59q0 -32 -23.5 -54.5t-56.5 -22.5q-34 0 -57 22.5t-23 54.5q0 35 23 59t57 24z" />
    <glyph glyph-name="slash" unicode="/" 
d="M187 666h92l-188 -684h-92z" />
    <glyph glyph-name="zero" unicode="0" horiz-adv-x="611" 
d="M397 333q0 265 -92 265t-92 -265t92 -265t92 265zM31 277q0 170 81 284.5t222 114.5q62 0 110.5 -26t77 -68.5t43 -91.5t14.5 -101q0 -170 -81 -284.5t-222 -114.5q-62 0 -110.5 26t-77 68.5t-43 91.5t-14.5 101z" />
    <glyph glyph-name="one" unicode="1" horiz-adv-x="611" 
d="M409 666v-666h-176v573l-129 -20v65z" />
    <glyph glyph-name="two" unicode="2" horiz-adv-x="611" 
d="M551 0h-477v81l253 304q44 54 44 113q0 42 -29 68t-71 26q-48 0 -79 -40.5t-27 -89.5h-90q-3 100 64 157t168 57t166.5 -64.5t65.5 -161.5q0 -92 -90 -199l-136 -161h238v-90z" />
    <glyph glyph-name="three" unicode="3" horiz-adv-x="611" 
d="M277 582h-210v84h482l-162 -227h10q59 0 92.5 -31.5t33.5 -76.5q0 -48 -34 -96l-170 -235h-232l195 272q23 34 23 53q0 22 -13.5 33.5t-35.5 11.5h-137z" />
    <glyph glyph-name="four" unicode="4" horiz-adv-x="611" 
d="M497 666v-435h84v-90h-84v-141h-176v141h-297v90l301 435h172zM315 499l-181 -268h187v268h-6z" />
    <glyph glyph-name="five" unicode="5" horiz-adv-x="611" 
d="M96 0l214 323q8 16 8 25q0 16 -9 26t-26 10h-172v282h396v-84h-220v-132h121q50 0 81 -24t31 -75q0 -17 -12.5 -48t-25.5 -52l-166 -251h-220z" />
    <glyph glyph-name="six" unicode="6" horiz-adv-x="611" 
d="M231 666h182l-103 -266q32 9 46 9q84 0 135.5 -45.5t51.5 -121.5q0 -108 -67.5 -180t-174.5 -72q-105 0 -171 51.5t-66 153.5q0 79 24 136zM366 198q0 17 -2 35t-8 40.5t-20 37t-34 14.5t-34 -14.5t-20 -37t-8 -40.5t-2 -35t2 -35t8 -40.5t20 -37t34 -14.5t34 14.5t20 37
t8 40.5t2 35z" />
    <glyph glyph-name="seven" unicode="7" horiz-adv-x="611" 
d="M355 582h-275v84h465v-92l-253 -574h-196z" />
    <glyph glyph-name="eight" unicode="8" horiz-adv-x="611" 
d="M317 676q89 0 148 -44t59 -129q0 -38 -23.5 -77.5t-54.5 -58.5q106 -49 106 -158q0 -103 -79 -161t-185 -58q-97 0 -163 49t-66 143q0 104 112 168q-83 60 -83 136q0 89 68.5 139.5t160.5 50.5zM247 193q0 -123 60 -123q57 0 57 123t-57 123q-60 0 -60 -123zM306 602
q-54 0 -54 -113t54 -113t54 113t-54 113z" />
    <glyph glyph-name="nine" unicode="9" horiz-adv-x="611" 
d="M491 281l-137 -281h-193l131 272q-22 -2 -32 -2q-76 0 -131 47t-55 122q0 102 69.5 169.5t172.5 67.5t164.5 -55.5t61.5 -158.5q0 -75 -51 -181zM244 479q0 -24 4.5 -49.5t19 -49.5t36.5 -24t36.5 24t19 49.5t4.5 49.5t-4.5 49.5t-19 49.5t-36.5 24t-36.5 -24t-19 -49.5
t-4.5 -49.5z" />
    <glyph glyph-name="colon" unicode=":" horiz-adv-x="305" 
d="M153 424q33 0 56.5 -24t23.5 -59q0 -32 -23.5 -54.5t-56.5 -22.5q-34 0 -57 22.5t-23 54.5q0 35 23 59t57 24zM153 153q33 0 56.5 -24t23.5 -59q0 -32 -23.5 -54.5t-56.5 -22.5q-34 0 -57 22.5t-23 54.5q0 35 23 59t57 24z" />
    <glyph glyph-name="semicolon" unicode=";" horiz-adv-x="305" 
d="M61 -198h-15l17 262q2 37 24.5 65.5t57.5 28.5q34 0 56 -20.5t22 -54.5q0 -35 -19 -63zM153 424q33 0 56.5 -24t23.5 -59q0 -32 -23.5 -54.5t-56.5 -22.5q-34 0 -57 22.5t-23 54.5q0 35 23 59t57 24z" />
    <glyph glyph-name="less" unicode="&#x3c;" horiz-adv-x="600" 
d="M83 179v76l434 187v-93l-309 -132l309 -132v-93z" />
    <glyph glyph-name="equal" unicode="=" horiz-adv-x="600" 
d="M517 361v-96h-434v96h434zM517 169v-96h-434v96h434z" />
    <glyph glyph-name="greater" unicode="&#x3e;" horiz-adv-x="600" 
d="M517 255v-76l-434 -187v93l309 132l-309 132v93z" />
    <glyph glyph-name="question" unicode="?" horiz-adv-x="444" 
d="M218 173h-54l-14 70q-12 67 -12 73q0 31 21 58.5t46 45.5t46 46t21 61q0 35 -23.5 56.5t-58.5 21.5q-44 0 -62.5 -24t-21.5 -71h-64q-7 86 41.5 128.5t136.5 42.5q98 0 148 -54.5t50 -127.5q0 -70 -36 -112.5t-112 -90.5q-19 -12 -28.5 -32t-15 -50.5t-8.5 -40.5z
M191 153q33 0 56.5 -24t23.5 -59q0 -32 -23.5 -54.5t-56.5 -22.5q-34 0 -57 22.5t-23 54.5q0 35 23 59t57 24z" />
    <glyph glyph-name="at" unicode="@" horiz-adv-x="800" 
d="M411 408q-41 0 -69.5 -34.5t-28.5 -75.5q0 -34 19 -57t51 -23q43 0 71.5 35t28.5 79q0 33 -20 54.5t-52 21.5zM510 445l10 46h83l-46 -225q-6 -33 -6 -37q0 -16 13 -16q36 0 64.5 40t28.5 109q0 107 -67.5 166.5t-175.5 59.5q-114 0 -183.5 -74.5t-69.5 -188.5
q0 -121 74.5 -193t193.5 -72q106 0 181 64h85q-100 -142 -274 -142q-148 0 -252 98t-104 245q0 144 103 242.5t248 98.5q128 0 223.5 -78t95.5 -201q0 -57 -19 -104.5t-46.5 -76t-61 -48t-60.5 -27t-46 -7.5q-21 0 -35 12t-15 34l-2 2q-39 -48 -91 -48q-60 0 -104.5 47.5
t-44.5 112.5q0 87 53 152.5t136 65.5q73 0 111 -57z" />
    <glyph glyph-name="A" unicode="A" horiz-adv-x="667" 
d="M271 501l-74 -225h159l-83 225h-2zM104 0h-94l224 648h182l242 -648h-202l-71 188h-218z" />
    <glyph glyph-name="B" unicode="B" horiz-adv-x="667" 
d="M80 648h311q59 -2 106.5 -19t81 -57t33.5 -99q0 -57 -38 -97.5t-96 -46.5v-2q67 -15 113 -58t46 -107q0 -46 -21.5 -80t-56 -50.5t-67.5 -24t-64 -7.5h-348v648zM262 292v-210h77q43 0 71.5 24.5t28.5 74.5q0 49 -33 80t-81 31h-63zM262 566v-192h68q94 0 94 93
q0 47 -28 73t-76 26h-58z" />
    <glyph glyph-name="C" unicode="C" horiz-adv-x="741" 
d="M679 518l-77 -58q-2 3 -14.5 19.5t-15.5 20l-14.5 17.5t-15.5 17.5l-15.5 14t-18.5 14t-19 10t-22.5 9t-24 4.5t-28.5 2q-39 0 -69.5 -16t-49 -41.5t-30.5 -61t-16.5 -70t-4.5 -71.5q0 -48 8 -90t25.5 -81.5t52.5 -63t84 -23.5q78 0 123.5 35t82.5 104l74 -54
q-46 -91 -119 -132t-181 -41q-152 0 -250 96t-98 246t98 246t250 96q105 0 166.5 -33.5t118.5 -114.5z" />
    <glyph glyph-name="D" unicode="D" horiz-adv-x="759" 
d="M80 0v648h286q151 0 250 -93.5t99 -242.5q0 -148 -91 -230t-228 -82h-316zM262 82h67q94 0 141 74.5t47 181.5q0 98 -51.5 163t-143.5 65h-60v-484z" />
    <glyph glyph-name="E" unicode="E" horiz-adv-x="556" 
d="M512 0h-424v648h412v-88h-230v-183h218v-88h-218v-201h242v-88z" />
    <glyph glyph-name="F" unicode="F" horiz-adv-x="537" 
d="M264 0h-182v648h424v-88h-242v-194h225v-88h-225v-278z" />
    <glyph glyph-name="G" unicode="G" horiz-adv-x="778" 
d="M677 518l-85 -68q-28 47 -47 72.5t-53.5 45.5t-79.5 20q-39 0 -69.5 -16t-49 -41.5t-30.5 -61t-16.5 -70t-4.5 -71.5q0 -48 8 -90t25.5 -81.5t52.5 -63t84 -23.5t91.5 13t42.5 41v163h176v-196q-141 -109 -330 -109q-152 0 -250 96t-98 246t98 246t250 96
q105 0 166.5 -33.5t118.5 -114.5z" />
    <glyph glyph-name="H" unicode="H" horiz-adv-x="722" 
d="M264 0h-182v648h182v-271h194v271h182v-648h-182v289h-194v-289z" />
    <glyph glyph-name="I" unicode="I" horiz-adv-x="352" 
d="M85 0v648h182v-648h-182z" />
    <glyph glyph-name="J" unicode="J" horiz-adv-x="407" 
d="M9 -4v88h39q26 0 44 8t28 21t16 34t7.5 40t1.5 47v414h182v-435q0 -111 -61 -164t-187 -53h-70z" />
    <glyph glyph-name="K" unicode="K" horiz-adv-x="648" 
d="M271 322l198 326h97l-144 -238l231 -410h-202zM82 0v648h182v-648h-182z" />
    <glyph glyph-name="L" unicode="L" horiz-adv-x="519" 
d="M88 0v648h182v-560h239v-88h-421z" />
    <glyph glyph-name="M" unicode="M" horiz-adv-x="796" 
d="M74 0v648h183l145 -340l140 340h180v-648h-182v411h-3l-171 -411h-22l-172 407h-2v-407h-96z" />
    <glyph glyph-name="N" unicode="N" horiz-adv-x="685" 
d="M84 0v648h203l216 -327h2v327h96v-648h-105l-314 476h-2v-476h-96z" />
    <glyph glyph-name="O" unicode="O" horiz-adv-x="778" 
d="M242 324q0 -44 6 -84.5t20.5 -83.5t45.5 -69.5t75 -26.5t75 26.5t45.5 69.5t20.5 83.5t6 84.5t-6 84.5t-20.5 83.5t-45.5 69.5t-75 26.5t-75 -26.5t-45.5 -69.5t-20.5 -83.5t-6 -84.5zM44 324q0 143 100 242.5t245 99.5t245 -99.5t100 -242.5t-100 -242.5t-245 -99.5
t-245 99.5t-100 242.5z" />
    <glyph glyph-name="P" unicode="P" horiz-adv-x="630" 
d="M262 0h-182v648h297q107 0 173 -55t66 -154q0 -92 -60.5 -134.5t-149.5 -42.5h-144v-262zM262 350h63q51 0 77 26.5t26 73.5q0 52 -29.5 81t-80.5 29h-56v-210z" />
    <glyph glyph-name="Q" unicode="Q" horiz-adv-x="778" 
d="M323 150h132v-70q81 64 81 244q0 44 -6 84.5t-20.5 83.5t-45.5 69.5t-75 26.5t-75 -26.5t-45.5 -69.5t-20.5 -83.5t-6 -84.5q0 -183 81 -244v70zM455 -73h-132v61q-123 25 -201 118.5t-78 217.5q0 143 100 242.5t245 99.5t245 -99.5t100 -242.5q0 -124 -78 -217
t-201 -119v-61z" />
    <glyph glyph-name="R" unicode="R" horiz-adv-x="667" 
d="M262 0h-182v648h326q87 0 158.5 -54t71.5 -140q0 -67 -42.5 -114t-110.5 -63l157 -277h-206l-161 330h20q36 0 61 4t48 16.5t34.5 37.5t11.5 63q0 54 -33.5 86.5t-84.5 32.5h-68v-570z" />
    <glyph glyph-name="S" unicode="S" horiz-adv-x="537" 
d="M34 112l91 56q49 -98 118 -98q39 0 61.5 21t22.5 58q0 31 -29 54t-70.5 41t-83 40t-70.5 63t-29 99q0 99 62 159.5t162 60.5q77 0 127.5 -30.5t91.5 -96.5l-73 -57q-27 47 -53.5 71.5t-70.5 24.5q-38 0 -57 -22t-19 -60q0 -31 29.5 -53t72 -39t85 -39t72 -64t29.5 -102
q0 -100 -66 -158.5t-168 -58.5q-82 0 -139 30.5t-96 99.5z" />
    <glyph glyph-name="T" unicode="T" horiz-adv-x="556" 
d="M12 560v88h532v-88h-175v-560h-182v560h-175z" />
    <glyph glyph-name="U" unicode="U" horiz-adv-x="667" 
d="M498 648h96v-450q0 -94 -63 -155t-198 -61q-118 0 -187.5 65.5t-69.5 159.5v441h182v-434q0 -58 31 -92.5t91 -34.5t89 34t29 93v434z" />
    <glyph glyph-name="V" unicode="V" horiz-adv-x="574" 
d="M290 -18l-278 666h194l139 -330l140 330h88l-281 -666h-2z" />
    <glyph glyph-name="W" unicode="W" horiz-adv-x="852" 
d="M572 -18l-143 327l-139 -327h-2l-276 666h203l138 -328l37 90l-96 238h192l139 -326l138 326h89l-278 -666h-2z" />
    <glyph glyph-name="X" unicode="X" horiz-adv-x="593" 
d="M223 298l-195 350h203l103 -182l121 182h97l-170 -262l220 -386h-208l-123 216l-143 -216h-93z" />
    <glyph glyph-name="Y" unicode="Y" horiz-adv-x="574" 
d="M344 411l135 237h95l-188 -326v-322h-182v310l-195 338h202z" />
    <glyph glyph-name="Z" unicode="Z" horiz-adv-x="611" 
d="M44 560v88h553l-317 -560h296v-88h-554l321 560h-299z" />
    <glyph glyph-name="bracketleft" unicode="[" horiz-adv-x="352" 
d="M71 -198v846h213v-57h-80v-732h80v-57h-213z" />
    <glyph glyph-name="backslash" unicode="\" 
d="M-1 666h92l188 -684h-92z" />
    <glyph glyph-name="bracketright" unicode="]" horiz-adv-x="352" 
d="M281 648v-846h-213v57h80v732h-80v57h213z" />
    <glyph glyph-name="asciicircum" unicode="^" horiz-adv-x="600" 
d="M179 291h-109l180 375h100l180 -375h-110l-120 264z" />
    <glyph glyph-name="underscore" unicode="_" horiz-adv-x="500" 
d="M0 -75h500v-50h-500v50z" />
    <glyph glyph-name="grave" unicode="`" 
d="M204 507h-60l-137 141h97z" />
    <glyph glyph-name="a" unicode="a" horiz-adv-x="426" 
d="M74 0h-66l112 351q14 44 34 65.5t61 21.5q36 0 54.5 -21.5t31.5 -61.5l117 -355h-144l-25 80h-148zM176 316l-55 -176h109l-52 176h-2z" />
    <glyph glyph-name="b" unicode="b" horiz-adv-x="537" 
d="M66 700h144v-266h45q114 0 181 -58t67 -171q0 -97 -57 -151t-147 -54h-233v700zM210 374v-314h24q59 0 87 36t28 120q0 70 -27.5 114t-84.5 44h-27z" />
    <glyph glyph-name="c" unicode="c" horiz-adv-x="463" 
d="M422 331l-59 -29q-16 37 -35.5 56.5t-54.5 19.5t-62 -41t-27 -120q0 -82 20.5 -121.5t68.5 -39.5q37 0 59 22.5t41 65.5l54 -30q-21 -56 -66 -87t-105 -31q-101 0 -163.5 56.5t-62.5 157.5q0 98 57 163t154 65q131 0 181 -107z" />
    <glyph glyph-name="d" unicode="d" horiz-adv-x="537" 
d="M327 700h144v-700h-233q-90 0 -147 54t-57 151q0 113 67 171t181 58h45v266zM327 60v314h-24q-59 0 -87 -36t-28 -120q0 -70 27.5 -114t84.5 -44h27z" />
    <glyph glyph-name="e" unicode="e" horiz-adv-x="407" 
d="M346 248v-64h-136v-90q0 -30 36 -30h123v-64h-223q-35 0 -57.5 23.5t-22.5 62.5v255q0 43 28.5 68t69.5 25h198v-64h-126q-26 0 -26 -39v-83h136z" />
    <glyph glyph-name="f" unicode="f" horiz-adv-x="333" 
d="M216 0h-144v585q0 55 32 85t91 30h144v-64h-87q-17 0 -25.5 -9.5t-9.5 -19t-1 -27.5v-146h107v-70h-107v-364z" />
    <glyph glyph-name="g" unicode="g" horiz-adv-x="537" 
d="M431 343l-54 -43q-17 27 -27.5 40.5t-31 25.5t-45.5 12q-35 0 -62 -41t-27 -120q0 -82 20.5 -121.5t68.5 -39.5q51 0 74 42v123h144v-419h-144v213q-41 -19 -91 -19q-101 0 -163.5 56.5t-62.5 157.5q0 98 57 163t154 65q65 0 107.5 -23t82.5 -72z" />
    <glyph glyph-name="h" unicode="h" horiz-adv-x="519" 
d="M210 0h-144v700h144v-418h99v152h144v-434h-144v218h-99v-218z" />
    <glyph glyph-name="i" unicode="i" 
d="M67 0v434h144v-434h-144zM139 683q30 0 52 -22t22 -52t-22 -52t-52 -22t-52 22t-22 52t22 52t52 22z" />
    <glyph glyph-name="j" unicode="j" 
d="M72 434h144v-482q0 -64 -28 -107t-92 -43h-132v64h38q70 0 70 58v510zM144 683q30 0 52 -22t22 -52t-22 -52t-52 -22t-52 22t-22 52t22 52t52 22z" />
    <glyph glyph-name="k" unicode="k" horiz-adv-x="500" 
d="M495 0h-158l-118 205l133 229h86l-93 -165zM214 700v-700h-144v700h144z" />
    <glyph glyph-name="l" unicode="l" horiz-adv-x="315" 
d="M67 700h144v-576q0 -35 7.5 -47.5t30.5 -12.5h61v-64h-143q-100 0 -100 87v613z" />
    <glyph glyph-name="m" unicode="m" horiz-adv-x="593" 
d="M138 0h-72v363q0 75 87 75q44 0 61.5 -15t35.5 -60l50 -120l58 143q22 52 84 52q48 0 66.5 -18.5t18.5 -56.5v-363h-144v299h-2l-112 -299h-13l-116 299h-2v-299z" />
    <glyph glyph-name="n" unicode="n" horiz-adv-x="463" 
d="M401 438v-370q0 -72 -53 -72q-38 0 -60 36l-152 246h-2v-278h-72v357q0 81 75 81q30 0 49 -13.5t37 -42.5l104 -165h2v221h72z" />
    <glyph glyph-name="o" unicode="o" horiz-adv-x="500" 
d="M29 217q0 93 64.5 157t156.5 64t156.5 -64t64.5 -157t-64.5 -157t-156.5 -64t-156.5 64t-64.5 157zM183 217q0 -37 2 -63t8.5 -52.5t21 -40t35.5 -13.5t35.5 13.5t21 40t8.5 52.5t2 63t-2 63t-8.5 52.5t-21 40t-35.5 13.5t-35.5 -13.5t-21 -40t-8.5 -52.5t-2 -63z" />
    <glyph glyph-name="p" unicode="p" horiz-adv-x="537" 
d="M210 -198h-144v632h176q123 0 192 -59t69 -167q0 -65 -20 -108t-59.5 -64t-84 -28.5t-107.5 -7.5h-22v-198zM210 374v-314h21q47 0 74.5 25t35.5 58t8 80q0 65 -28.5 108t-90.5 43h-20z" />
    <glyph glyph-name="q" unicode="q" horiz-adv-x="500" 
d="M316 7v-85h-132v85q-67 19 -111 77t-44 133q0 93 64.5 157t156.5 64t156.5 -64t64.5 -157q0 -74 -43 -132t-112 -78zM183 217q0 -37 2 -63t8.5 -52.5t21 -40t35.5 -13.5t35.5 13.5t21 40t8.5 52.5t2 63t-2 63t-8.5 52.5t-21 40t-35.5 13.5t-35.5 -13.5t-21 -40
t-8.5 -52.5t-2 -63z" />
    <glyph glyph-name="r" unicode="r" horiz-adv-x="481" 
d="M62 0v434h227q60 0 102.5 -36.5t42.5 -95.5q0 -90 -82 -110l125 -192h-162l-100 213h2q73 0 73 83q0 36 -19.5 57t-48.5 21h-16v-374h-144z" />
    <glyph glyph-name="s" unicode="s" horiz-adv-x="389" 
d="M317 370h-99q-50 0 -50 -36q0 -22 20 -32.5t48.5 -16t57 -15.5t48.5 -39.5t20 -78.5q0 -73 -43.5 -112.5t-113.5 -39.5h-156v64h122q35 0 50.5 9t15.5 43q0 22 -21.5 33t-52 17.5t-61 17t-52 38t-21.5 73.5q0 66 41.5 102.5t108.5 36.5h138v-64z" />
    <glyph glyph-name="t" unicode="t" horiz-adv-x="389" 
d="M9 356v78h370v-78h-113v-356h-144v356h-113z" />
    <glyph glyph-name="u" unicode="u" horiz-adv-x="481" 
d="M62 434h144v-258q0 -47 15 -73.5t58 -26.5q32 0 50 22t18 55v281h72v-290q0 -72 -48.5 -110t-128.5 -38q-180 0 -180 179v259z" />
    <glyph glyph-name="v" unicode="v" horiz-adv-x="426" 
d="M11 434h151l92 -323h2l85 323h74l-109 -377q-17 -61 -89 -61q-44 0 -66 24t-36 70z" />
    <glyph glyph-name="w" unicode="w" horiz-adv-x="685" 
d="M10 434h145l88 -311h2l62 218l-23 93h145l83 -316h2l89 316h73l-122 -392q-14 -46 -72 -46q-78 0 -97 75l-41 165h-2l-41 -153q-24 -87 -95 -87q-73 0 -95 79z" />
    <glyph glyph-name="x" unicode="x" horiz-adv-x="426" 
d="M27 0l128 186l-136 248h156l72 -126l79 126h74l-125 -182l142 -252h-157l-71 126l-86 -126h-76z" />
    <glyph glyph-name="y" unicode="y" horiz-adv-x="426" 
d="M65 -198l113 266l-168 366h159l86 -190l83 190h78l-274 -632h-77z" />
    <glyph glyph-name="z" unicode="z" horiz-adv-x="407" 
d="M387 0h-348v27l160 343h-164v64h279q42 0 42 -47q0 -17 -8 -34l-133 -289h172v-64z" />
    <glyph glyph-name="braceleft" unicode="{" horiz-adv-x="352" 
d="M1 191v68q28 0 56 17t28 55v194q0 63 38 93t77 30h93v-57h-39q-31 0 -40.5 -16.5t-9.5 -44.5v-188q0 -34 -10 -58t-26 -35.5t-29.5 -16.5t-27.5 -6v-2q93 -6 93 -122v-186q0 -16 2.5 -27t14.5 -20.5t33 -9.5h39v-57h-93q-37 0 -76 32.5t-39 90.5v186q0 42 -28 61t-56 19z
" />
    <glyph glyph-name="bar" unicode="|" horiz-adv-x="222" 
d="M63 750h96v-1000h-96v1000z" />
    <glyph glyph-name="braceright" unicode="}" horiz-adv-x="352" 
d="M351 259v-68q-28 0 -56 -17t-28 -55v-194q0 -63 -38 -93t-77 -30h-93v57h39q31 0 40.5 16.5t9.5 44.5v188q0 34 10 58t26 35.5t29.5 16.5t27.5 6v2q-93 6 -93 122v186q0 16 -2.5 27t-14.5 20.5t-33 9.5h-39v57h93q37 0 76 -32.5t39 -90.5v-186q0 -42 28 -61t56 -19z" />
    <glyph glyph-name="asciitilde" unicode="~" horiz-adv-x="600" 
d="M495 307l36 -90q-20 -27 -33 -42t-38 -29.5t-54 -14.5q-42 0 -102 33q-62 35 -115 35q-51 0 -84 -72l-36 90q45 86 125 86q39 0 111 -32l21.5 -9.5t23 -10l20 -8t20.5 -6.5t17 -2q19 0 36.5 12t27 24.5t24.5 35.5z" />
    <glyph glyph-name="uni00A0" unicode="&#xa0;" horiz-adv-x="305" 
 />
    <glyph glyph-name="exclamdown" unicode="&#xa1;" 
d="M115 305h22l60 -358q8 -54 8 -66q0 -36 -21 -57.5t-58 -21.5t-58 21.5t-21 57.5q0 12 8 66zM126 330q-33 0 -56.5 24t-23.5 59q0 32 23.5 54.5t56.5 22.5q34 0 57 -22.5t23 -54.5q0 -35 -23 -59t-57 -24z" />
    <glyph glyph-name="cent" unicode="&#xa2;" horiz-adv-x="611" 
d="M325 462l19 107h44l-20 -114q91 -37 113 -99l-59 -37q-26 56 -66 71l-59 -332q14 -2 20 -2q37 0 62 18.5t49 57.5l53 -36q-58 -106 -175 -106h-20l-22 -124h-43l22 127q-85 13 -137.5 78.5t-52.5 152.5q0 104 67.5 171.5t167.5 67.5q25 0 37 -1zM258 81l57 316
q-55 -5 -81.5 -59.5t-26.5 -116.5q0 -89 51 -140z" />
    <glyph glyph-name="sterling" unicode="&#xa3;" horiz-adv-x="611" 
d="M617 566l-61 -53q-2 3 -8 9.5t-8.5 9t-7.5 8.5t-8 8t-8 6.5t-9 6t-9.5 4t-10.5 3.5t-12 2t-14 1q-36 0 -62.5 -25t-36.5 -60l-34 -121h122v-70h-142l-62 -210h257v-85h-469l89 295h-58v70h79l47 139q31 90 86 131t152 41t188 -110z" />
    <glyph glyph-name="currency" unicode="&#xa4;" horiz-adv-x="611" 
d="M564 532l-58 -58q47 -46 47 -141t-47 -141l58 -58l-61 -61l-56 57q-53 -45 -142 -45t-142 45l-56 -57l-61 61l58 58q-47 46 -47 141t47 141l-58 58l61 61l56 -57q53 45 142 45t142 -45l56 57zM169 333q0 -60 38.5 -102.5t97.5 -42.5t97.5 42.5t38.5 102.5t-38.5 102.5
t-97.5 42.5t-97.5 -42.5t-38.5 -102.5z" />
    <glyph glyph-name="yen" unicode="&#xa5;" horiz-adv-x="611" 
d="M72 232v70h148v22l-37 66h-149v70h106l-117 206h182l151 -268l154 268h78l-118 -206h96v-70h-137l-33 -57v-31h148v-70h-148v-232h-176v232h-148z" />
    <glyph glyph-name="brokenbar" unicode="&#xa6;" horiz-adv-x="222" 
d="M63 675h96v-350h-96v350zM63 175h96v-350h-96v350z" />
    <glyph glyph-name="section" unicode="&#xa7;" horiz-adv-x="500" 
d="M434 581l-73 -45q-13 27 -37 43.5t-52 16.5q-23 0 -39 -12t-16 -34q0 -20 41 -57t90 -74t90 -90.5t41 -103.5q0 -104 -116 -135q44 -47 44 -105q0 -64 -44.5 -98.5t-110.5 -34.5q-63 0 -107.5 17.5t-79.5 63.5l70 48q48 -59 87 -59q57 0 57 46q0 17 -27 43.5t-65.5 57.5
l-77.5 65t-66 75t-27 78q0 55 33 91t89 48q-49 47 -49 103q0 71 47.5 104t121.5 33q120 0 176 -85zM183 376q-12 0 -26.5 -15.5t-14.5 -39.5q0 -9 4 -18t14 -20l16.5 -18t22.5 -21t22 -20q86 -83 94 -83q7 0 22.5 14.5t15.5 31.5q0 10 -2.5 19t-5.5 15.5t-12 16.5t-15 15.5
l-21 19t-24 22.5q-85 81 -90 81z" />
    <glyph glyph-name="dieresis" unicode="&#xa8;" 
d="M104 566q0 -20 -15.5 -35.5t-35.5 -15.5t-35.5 15.5t-15.5 35.5t15.5 35.5t35.5 15.5t35.5 -15.5t15.5 -35.5zM271 566q0 -20 -15.5 -35.5t-35.5 -15.5t-35.5 15.5t-15.5 35.5t15.5 35.5t35.5 15.5t35.5 -15.5t15.5 -35.5z" />
    <glyph glyph-name="copyright" unicode="&#xa9;" horiz-adv-x="800" 
d="M400 -18q-145 0 -249.5 93.5t-104.5 247.5q0 155 104.5 249t249.5 94t249.5 -94t104.5 -249q0 -154 -104 -247.5t-250 -93.5zM400 62q103 0 175.5 74t72.5 187q0 115 -72.5 189t-175.5 74q-105 0 -176.5 -74t-71.5 -189q0 -113 72 -187t176 -74zM496 272h83
q-10 -68 -56.5 -107t-108.5 -39q-86 0 -139 57t-53 143q0 88 51.5 144.5t138.5 56.5q64 0 108.5 -37t54.5 -106h-79q-11 61 -84 61q-45 0 -69 -31.5t-24 -85.5q0 -51 26.5 -85.5t68.5 -34.5q76 0 82 64z" />
    <glyph glyph-name="ordfeminine" unicode="&#xaa;" horiz-adv-x="256" 
d="M-8 411l73 213q18 52 65 52q40 0 59 -50l76 -215h-100l-16 48h-90l-18 -48h-49zM104 603l-32 -106h65l-31 106h-2z" />
    <glyph glyph-name="guillemotleft" unicode="&#xab;" horiz-adv-x="556" 
d="M243 24l-183 120v146l183 120v-130l-99 -63l99 -63v-130zM491 24l-183 120v146l183 120v-130l-99 -63l99 -63v-130z" />
    <glyph glyph-name="logicalnot" unicode="&#xac;" horiz-adv-x="600" 
d="M421 93v172h-338v96h434v-268h-96z" />
    <glyph glyph-name="uni00AD" unicode="&#xad;" horiz-adv-x="333" 
d="M289 234l-245 -130v96l245 130v-96z" />
    <glyph glyph-name="registered" unicode="&#xae;" horiz-adv-x="800" 
d="M400 -18q-145 0 -249.5 93.5t-104.5 247.5q0 155 104.5 249t249.5 94t249.5 -94t104.5 -249q0 -154 -104 -247.5t-250 -93.5zM400 62q103 0 175.5 74t72.5 187q0 115 -72.5 189t-175.5 74q-105 0 -176.5 -74t-71.5 -189q0 -113 72 -187t176 -74zM342 294v-158h-80v376
h140q77 0 115.5 -26t38.5 -88q0 -92 -103 -100l97 -162h-82l-87 158h-39zM342 358h71q30 0 44.5 10t14.5 38q0 42 -73 42h-57v-90z" />
    <glyph glyph-name="macron" unicode="&#xaf;" 
d="M275 523h-273v67h273v-67z" />
    <glyph glyph-name="degree" unicode="&#xb0;" horiz-adv-x="400" 
d="M200 440q38 0 63.5 27t25.5 66t-25.5 66t-63.5 27t-63.5 -27t-25.5 -66t25.5 -66t63.5 -27zM200 676q60 0 101.5 -41.5t41.5 -101.5t-41.5 -101.5t-101.5 -41.5t-101.5 41.5t-41.5 101.5t41.5 101.5t101.5 41.5z" />
    <glyph glyph-name="plusminus" unicode="&#xb1;" horiz-adv-x="600" 
d="M83 236v96h169v102h96v-102h169v-96h-169v-103h-96v103h-169zM83 0v96h434v-96h-434z" />
    <glyph glyph-name="twosuperior" unicode="&#xb2;" horiz-adv-x="366" 
d="M358 270h-310v49l165 182q29 34 29 68q0 24 -19 38.5t-47 14.5q-32 0 -52 -23t-17 -52h-58q-2 60 41.5 94.5t109.5 34.5q65 0 107.5 -39t42.5 -97q0 -55 -58 -119l-89 -97h155v-54z" />
    <glyph glyph-name="threesuperior" unicode="&#xb3;" horiz-adv-x="366" 
d="M178 612h-134v54h313l-105 -138h10q39 0 58.5 -19t19.5 -49q0 -24 -22 -53l-111 -137h-150l126 159q15 20 15 32q0 27 -32 27h-89z" />
    <glyph glyph-name="acute" unicode="&#xb4;" 
d="M75 507l92 141h102l-137 -141h-57z" />
    <glyph glyph-name="mu" unicode="&#xb5;" horiz-adv-x="481" 
d="M62 434h144v-258q0 -47 15 -73.5t58 -26.5q32 0 50 22t18 55v281h72v-290q0 -72 -48.5 -110t-128.5 -38q-21 0 -36 3v-197h-144v632z" />
    <glyph glyph-name="paragraph" unicode="&#xb6;" horiz-adv-x="600" 
d="M234 -198v493q-106 0 -164 46t-58 127q0 100 64.5 140t179.5 40h303v-846h-112v760h-101v-760h-112z" />
    <glyph glyph-name="periodcentered" unicode="&#xb7;" horiz-adv-x="305" 
d="M147 297q33 0 56.5 -24t23.5 -59q0 -32 -23.5 -54.5t-56.5 -22.5q-34 0 -57 22.5t-23 54.5q0 35 23 59t57 24z" />
    <glyph glyph-name="cedilla" unicode="&#xb8;" 
d="M131 0h32l-15 -44q42 3 72.5 -13t30.5 -56q0 -34 -22 -54.5t-49 -27t-60 -6.5q-53 0 -119 33l21 36q49 -32 93 -32q24 0 42 11t18 34q0 38 -46 38q-19 0 -27 -6l-5 6z" />
    <glyph glyph-name="onesuperior" unicode="&#xb9;" horiz-adv-x="366" 
d="M269 666v-396h-114v340l-84 -12v39z" />
    <glyph glyph-name="ordmasculine" unicode="&#xba;" horiz-adv-x="300" 
d="M297 543q0 -55 -43 -93.5t-103 -38.5t-103.5 38.5t-43.5 93.5q0 56 43 94.5t104 38.5q60 0 103 -38.5t43 -94.5zM191 543q0 24 -1 37t-4.5 28.5t-12 22.5t-22.5 7t-22.5 -7t-12.5 -22t-5 -29t-1 -37t1 -37t5 -28.5t12.5 -21.5t22.5 -7t22.5 6.5t12 22t4.5 28.5t1 37z" />
    <glyph glyph-name="guillemotright" unicode="&#xbb;" horiz-adv-x="556" 
d="M313 410l183 -120v-146l-183 -120v130l99 63l-99 63v130zM65 410l183 -120v-146l-183 -120v130l99 63l-99 63v130z" />
    <glyph glyph-name="onequarter" unicode="&#xbc;" horiz-adv-x="916" 
d="M841 400v-261h55v-54h-55v-85h-114v85h-193v54l195 261h112zM723 299l-118 -160h122v160h-4zM294 -10h-71l430 686h71zM269 666v-396h-114v340l-84 -12v39z" />
    <glyph glyph-name="onehalf" unicode="&#xbd;" horiz-adv-x="916" 
d="M264 -10h-71l430 686h71zM269 666v-396h-114v340l-84 -12v39zM881 0h-310v49l165 182q29 34 29 68q0 24 -19 38.5t-47 14.5q-32 0 -52 -23t-17 -52h-58q-2 60 41.5 94.5t109.5 34.5q65 0 107.5 -39t42.5 -97q0 -55 -58 -119l-89 -97h155v-54z" />
    <glyph glyph-name="threequarters" unicode="&#xbe;" horiz-adv-x="916" 
d="M841 400v-261h55v-54h-55v-85h-114v85h-193v54l195 261h112zM723 299l-118 -160h122v160h-4zM294 -10h-71l430 686h71zM198 612h-134v54h313l-105 -137q4 1 12 0t11 -1q30 -2 47.5 -21t17.5 -47q0 -24 -22 -53l-111 -137h-150l126 159q15 20 15 32q0 25 -32 27h-89z" />
    <glyph glyph-name="questiondown" unicode="&#xbf;" horiz-adv-x="444" 
d="M226 310h54l14 -70q12 -67 12 -73q0 -31 -21 -58.5t-46 -45.5t-46 -46t-21 -61q0 -35 23.5 -56.5t58.5 -21.5q44 0 62.5 24t21.5 71h64q7 -86 -41.5 -128.5t-136.5 -42.5q-98 0 -148 54.5t-50 127.5q0 70 36 112.5t112 90.5q19 12 28.5 32t15 50.5t8.5 40.5zM253 330
q-33 0 -56.5 24t-23.5 59q0 32 23.5 54.5t56.5 22.5q34 0 57 -22.5t23 -54.5q0 -35 -23 -59t-57 -24z" />
    <glyph glyph-name="Agrave" unicode="&#xc0;" horiz-adv-x="667" 
d="M271 501l-74 -225h159l-83 225h-2zM104 0h-94l224 648h182l242 -648h-202l-71 188h-218zM387 715h-60l-137 141h97z" />
    <glyph glyph-name="Aacute" unicode="&#xc1;" horiz-adv-x="667" 
d="M271 501l-74 -225h159l-83 225h-2zM104 0h-94l224 648h182l242 -648h-202l-71 188h-218zM258 715l92 141h102l-137 -141h-57z" />
    <glyph glyph-name="Acircumflex" unicode="&#xc2;" horiz-adv-x="667" 
d="M271 501l-74 -225h159l-83 225h-2zM104 0h-94l224 648h182l242 -648h-202l-71 188h-218zM181 715l92 141h93l96 -141h-60l-81 92l-80 -92h-60z" />
    <glyph glyph-name="Atilde" unicode="&#xc3;" horiz-adv-x="667" 
d="M271 501l-74 -225h159l-83 225h-2zM104 0h-94l224 648h182l242 -648h-202l-71 188h-218zM202 708h-37q19 106 106 106q13 0 61 -11q44 -12 56 -12q33 0 52 40h30q0 -46 -28.5 -75t-74.5 -29q-21 0 -61 12q-44 11 -57 11q-14 0 -28 -13.5t-19 -28.5z" />
    <glyph glyph-name="Adieresis" unicode="&#xc4;" horiz-adv-x="667" 
d="M271 501l-74 -225h159l-83 225h-2zM104 0h-94l224 648h182l242 -648h-202l-71 188h-218zM287 774q0 -20 -15.5 -35.5t-35.5 -15.5t-35.5 15.5t-15.5 35.5t15.5 35.5t35.5 15.5t35.5 -15.5t15.5 -35.5zM454 774q0 -20 -15.5 -35.5t-35.5 -15.5t-35.5 15.5t-15.5 35.5
t15.5 35.5t35.5 15.5t35.5 -15.5t15.5 -35.5z" />
    <glyph glyph-name="Aring" unicode="&#xc5;" horiz-adv-x="667" 
d="M271 501l-74 -225h159l-83 225h-2zM104 0h-94l224 648h182l242 -648h-202l-71 188h-218zM216 803q0 43 31 74t75 31t74.5 -31t30.5 -74q0 -44 -31 -75t-74 -31q-44 0 -75 31.5t-31 74.5zM265 803q0 -23 17 -40t40 -17t39.5 17t16.5 40t-16.5 39.5t-39.5 16.5t-40 -16.5
t-17 -39.5z" />
    <glyph glyph-name="AE" unicode="&#xc6;" horiz-adv-x="944" 
d="M265 276h185v287h-2zM632 88h242v-88h-424v188h-240l-124 -188h-101l418 648h460v-88h-231v-183h219v-88h-219v-201z" />
    <glyph glyph-name="Ccedilla" unicode="&#xc7;" horiz-adv-x="741" 
d="M679 518l-77 -58q-2 3 -14.5 19.5t-15.5 20l-14.5 17.5t-15.5 17.5l-15.5 14t-18.5 14t-19 10t-22.5 9t-24 4.5t-28.5 2q-39 0 -69.5 -16t-49 -41.5t-30.5 -61t-16.5 -70t-4.5 -71.5q0 -48 8 -90t25.5 -81.5t52.5 -63t84 -23.5q78 0 123.5 35t82.5 104l74 -54
q-43 -86 -110.5 -127t-165.5 -45l-9 -27q42 3 72.5 -13t30.5 -56q0 -34 -22 -54.5t-49 -27t-60 -6.5q-53 0 -119 33l21 36q49 -32 93 -32q24 0 42 11t18 34q0 38 -46 38q-19 0 -27 -6l-5 6l26 64q-148 3 -243 98.5t-95 242.5q0 150 98 246t250 96q105 0 166.5 -33.5
t118.5 -114.5z" />
    <glyph glyph-name="Egrave" unicode="&#xc8;" horiz-adv-x="556" 
d="M512 0h-424v648h412v-88h-230v-183h218v-88h-218v-201h242v-88zM363 715h-60l-137 141h97z" />
    <glyph glyph-name="Eacute" unicode="&#xc9;" horiz-adv-x="556" 
d="M512 0h-424v648h412v-88h-230v-183h218v-88h-218v-201h242v-88zM234 715l92 141h102l-137 -141h-57z" />
    <glyph glyph-name="Ecircumflex" unicode="&#xca;" horiz-adv-x="556" 
d="M512 0h-424v648h412v-88h-230v-183h218v-88h-218v-201h242v-88zM157 715l92 141h93l96 -141h-60l-81 92l-80 -92h-60z" />
    <glyph glyph-name="Edieresis" unicode="&#xcb;" horiz-adv-x="556" 
d="M512 0h-424v648h412v-88h-230v-183h218v-88h-218v-201h242v-88zM263 774q0 -20 -15.5 -35.5t-35.5 -15.5t-35.5 15.5t-15.5 35.5t15.5 35.5t35.5 15.5t35.5 -15.5t15.5 -35.5zM430 774q0 -20 -15.5 -35.5t-35.5 -15.5t-35.5 15.5t-15.5 35.5t15.5 35.5t35.5 15.5
t35.5 -15.5t15.5 -35.5z" />
    <glyph glyph-name="Igrave" unicode="&#xcc;" horiz-adv-x="352" 
d="M85 0v648h182v-648h-182zM241 715h-60l-137 141h97z" />
    <glyph glyph-name="Iacute" unicode="&#xcd;" horiz-adv-x="352" 
d="M85 0v648h182v-648h-182zM112 715l92 141h102l-137 -141h-57z" />
    <glyph glyph-name="Icircumflex" unicode="&#xce;" horiz-adv-x="352" 
d="M85 0v648h182v-648h-182zM35 715l92 141h93l96 -141h-60l-81 92l-80 -92h-60z" />
    <glyph glyph-name="Idieresis" unicode="&#xcf;" horiz-adv-x="352" 
d="M85 0v648h182v-648h-182zM141 774q0 -20 -15.5 -35.5t-35.5 -15.5t-35.5 15.5t-15.5 35.5t15.5 35.5t35.5 15.5t35.5 -15.5t15.5 -35.5zM308 774q0 -20 -15.5 -35.5t-35.5 -15.5t-35.5 15.5t-15.5 35.5t15.5 35.5t35.5 15.5t35.5 -15.5t15.5 -35.5z" />
    <glyph glyph-name="Eth" unicode="&#xd0;" horiz-adv-x="759" 
d="M80 0v289h-65v88h65v271h286q151 0 250 -93.5t99 -242.5q0 -148 -91 -230t-228 -82h-316zM262 289v-207h67q94 0 141 74.5t47 181.5q0 98 -51.5 163t-143.5 65h-60v-189h103v-88h-103z" />
    <glyph glyph-name="Ntilde" unicode="&#xd1;" horiz-adv-x="685" 
d="M84 0v648h203l216 -327h2v327h96v-648h-105l-314 476h-2v-476h-96zM223 708h-37q19 106 106 106q13 0 61 -11q44 -12 56 -12q33 0 52 40h30q0 -46 -28.5 -75t-74.5 -29q-21 0 -61 12q-44 11 -57 11q-14 0 -28 -13.5t-19 -28.5z" />
    <glyph glyph-name="Ograve" unicode="&#xd2;" horiz-adv-x="778" 
d="M242 324q0 -44 6 -84.5t20.5 -83.5t45.5 -69.5t75 -26.5t75 26.5t45.5 69.5t20.5 83.5t6 84.5t-6 84.5t-20.5 83.5t-45.5 69.5t-75 26.5t-75 -26.5t-45.5 -69.5t-20.5 -83.5t-6 -84.5zM44 324q0 143 100 242.5t245 99.5t245 -99.5t100 -242.5t-100 -242.5t-245 -99.5
t-245 99.5t-100 242.5zM454 715h-60l-137 141h97z" />
    <glyph glyph-name="Oacute" unicode="&#xd3;" horiz-adv-x="778" 
d="M242 324q0 -44 6 -84.5t20.5 -83.5t45.5 -69.5t75 -26.5t75 26.5t45.5 69.5t20.5 83.5t6 84.5t-6 84.5t-20.5 83.5t-45.5 69.5t-75 26.5t-75 -26.5t-45.5 -69.5t-20.5 -83.5t-6 -84.5zM44 324q0 143 100 242.5t245 99.5t245 -99.5t100 -242.5t-100 -242.5t-245 -99.5
t-245 99.5t-100 242.5zM325 715l92 141h102l-137 -141h-57z" />
    <glyph glyph-name="Ocircumflex" unicode="&#xd4;" horiz-adv-x="778" 
d="M242 324q0 -44 6 -84.5t20.5 -83.5t45.5 -69.5t75 -26.5t75 26.5t45.5 69.5t20.5 83.5t6 84.5t-6 84.5t-20.5 83.5t-45.5 69.5t-75 26.5t-75 -26.5t-45.5 -69.5t-20.5 -83.5t-6 -84.5zM44 324q0 143 100 242.5t245 99.5t245 -99.5t100 -242.5t-100 -242.5t-245 -99.5
t-245 99.5t-100 242.5zM248 715l92 141h93l96 -141h-60l-81 92l-80 -92h-60z" />
    <glyph glyph-name="Otilde" unicode="&#xd5;" horiz-adv-x="778" 
d="M242 324q0 -44 6 -84.5t20.5 -83.5t45.5 -69.5t75 -26.5t75 26.5t45.5 69.5t20.5 83.5t6 84.5t-6 84.5t-20.5 83.5t-45.5 69.5t-75 26.5t-75 -26.5t-45.5 -69.5t-20.5 -83.5t-6 -84.5zM44 324q0 143 100 242.5t245 99.5t245 -99.5t100 -242.5t-100 -242.5t-245 -99.5
t-245 99.5t-100 242.5zM269 708h-37q19 106 106 106q13 0 61 -11q44 -12 56 -12q33 0 52 40h30q0 -46 -28.5 -75t-74.5 -29q-21 0 -61 12q-44 11 -57 11q-14 0 -28 -13.5t-19 -28.5z" />
    <glyph glyph-name="Odieresis" unicode="&#xd6;" horiz-adv-x="778" 
d="M242 324q0 -44 6 -84.5t20.5 -83.5t45.5 -69.5t75 -26.5t75 26.5t45.5 69.5t20.5 83.5t6 84.5t-6 84.5t-20.5 83.5t-45.5 69.5t-75 26.5t-75 -26.5t-45.5 -69.5t-20.5 -83.5t-6 -84.5zM44 324q0 143 100 242.5t245 99.5t245 -99.5t100 -242.5t-100 -242.5t-245 -99.5
t-245 99.5t-100 242.5zM354 774q0 -20 -15.5 -35.5t-35.5 -15.5t-35.5 15.5t-15.5 35.5t15.5 35.5t35.5 15.5t35.5 -15.5t15.5 -35.5zM521 774q0 -20 -15.5 -35.5t-35.5 -15.5t-35.5 15.5t-15.5 35.5t15.5 35.5t35.5 15.5t35.5 -15.5t15.5 -35.5z" />
    <glyph glyph-name="multiply" unicode="&#xd7;" horiz-adv-x="600" 
d="M300 150l-150 -150l-67 67l150 150l-150 150l67 67l150 -150l150 150l67 -67l-150 -150l150 -150l-67 -67z" />
    <glyph glyph-name="Oslash" unicode="&#xd8;" horiz-adv-x="778" 
d="M253 212l247 300q-36 76 -111 76q-44 0 -75 -26.5t-45.5 -69.5t-20.5 -83.5t-6 -84.5q0 -66 11 -112zM654 700h79l-106 -127q107 -99 107 -249q0 -143 -100 -242.5t-245 -99.5q-112 0 -200 63l-82 -97h-74l112 133q-101 101 -101 243q0 143 100 242.5t245 99.5
q105 0 191 -56zM523 447l-250 -301q38 -86 116 -86q44 0 75 26.5t45.5 69.5t20.5 83.5t6 84.5q0 68 -13 123z" />
    <glyph glyph-name="Ugrave" unicode="&#xd9;" horiz-adv-x="667" 
d="M498 648h96v-450q0 -94 -63 -155t-198 -61q-118 0 -187.5 65.5t-69.5 159.5v441h182v-434q0 -58 31 -92.5t91 -34.5t89 34t29 93v434zM411 715h-60l-137 141h97z" />
    <glyph glyph-name="Uacute" unicode="&#xda;" horiz-adv-x="667" 
d="M498 648h96v-450q0 -94 -63 -155t-198 -61q-118 0 -187.5 65.5t-69.5 159.5v441h182v-434q0 -58 31 -92.5t91 -34.5t89 34t29 93v434zM282 715l92 141h102l-137 -141h-57z" />
    <glyph glyph-name="Ucircumflex" unicode="&#xdb;" horiz-adv-x="667" 
d="M498 648h96v-450q0 -94 -63 -155t-198 -61q-118 0 -187.5 65.5t-69.5 159.5v441h182v-434q0 -58 31 -92.5t91 -34.5t89 34t29 93v434zM205 715l92 141h93l96 -141h-60l-81 92l-80 -92h-60z" />
    <glyph glyph-name="Udieresis" unicode="&#xdc;" horiz-adv-x="667" 
d="M498 648h96v-450q0 -94 -63 -155t-198 -61q-118 0 -187.5 65.5t-69.5 159.5v441h182v-434q0 -58 31 -92.5t91 -34.5t89 34t29 93v434zM311 774q0 -20 -15.5 -35.5t-35.5 -15.5t-35.5 15.5t-15.5 35.5t15.5 35.5t35.5 15.5t35.5 -15.5t15.5 -35.5zM478 774
q0 -20 -15.5 -35.5t-35.5 -15.5t-35.5 15.5t-15.5 35.5t15.5 35.5t35.5 15.5t35.5 -15.5t15.5 -35.5z" />
    <glyph glyph-name="Yacute" unicode="&#xdd;" horiz-adv-x="574" 
d="M344 411l135 237h95l-188 -326v-322h-182v310l-195 338h202zM217 715l92 141h102l-137 -141h-57z" />
    <glyph glyph-name="Thorn" unicode="&#xde;" horiz-adv-x="630" 
d="M262 648v-126h115q107 0 173 -55t66 -154q0 -92 -60.5 -134.5t-149.5 -42.5h-144v-136h-182v648h182zM262 224h63q51 0 77 26.5t26 73.5q0 52 -29.5 81t-80.5 29h-56v-210z" />
    <glyph glyph-name="germandbls" unicode="&#xdf;" horiz-adv-x="574" 
d="M195 0h-132v544q0 156 214 156q47 0 88.5 -13.5t72 -48t30.5 -84.5q0 -69 -64 -111q-13 -8 -30.5 -17t-26 -14t-8.5 -9q0 -7 15.5 -14.5t39 -15t51 -22.5t51 -35t39 -55t15.5 -79q0 -90 -61.5 -138t-172.5 -48q-13 0 -94 6v55q18 -5 55 -5q63 0 96 38t33 102q0 35 -13 64
t-31 47.5t-36 34t-31 31.5t-13 31q0 7 2 13t4 10.5t7.5 11l8 9.5t10 10l10.5 10q41 43 41 90q0 40 -24 67t-63 27q-83 0 -83 -60v-588z" />
    <glyph glyph-name="agrave" unicode="&#xe0;" horiz-adv-x="426" 
d="M74 0h-66l112 351q14 44 34 65.5t61 21.5q36 0 54.5 -21.5t31.5 -61.5l117 -355h-144l-25 80h-148zM176 316l-55 -176h109l-52 176h-2zM278 507h-60l-137 141h97z" />
    <glyph glyph-name="aacute" unicode="&#xe1;" horiz-adv-x="426" 
d="M74 0h-66l112 351q14 44 34 65.5t61 21.5q36 0 54.5 -21.5t31.5 -61.5l117 -355h-144l-25 80h-148zM176 316l-55 -176h109l-52 176h-2zM149 507l92 141h102l-137 -141h-57z" />
    <glyph glyph-name="acircumflex" unicode="&#xe2;" horiz-adv-x="426" 
d="M74 0h-66l112 351q14 44 34 65.5t61 21.5q36 0 54.5 -21.5t31.5 -61.5l117 -355h-144l-25 80h-148zM176 316l-55 -176h109l-52 176h-2zM72 507l92 141h93l96 -141h-60l-81 92l-80 -92h-60z" />
    <glyph glyph-name="atilde" unicode="&#xe3;" horiz-adv-x="426" 
d="M74 0h-66l112 351q14 44 34 65.5t61 21.5q36 0 54.5 -21.5t31.5 -61.5l117 -355h-144l-25 80h-148zM176 316l-55 -176h109l-52 176h-2zM93 500h-37q19 106 106 106q13 0 61 -11q44 -12 56 -12q33 0 52 40h30q0 -46 -28.5 -75t-74.5 -29q-21 0 -61 12q-44 11 -57 11
q-14 0 -28 -13.5t-19 -28.5z" />
    <glyph glyph-name="adieresis" unicode="&#xe4;" horiz-adv-x="426" 
d="M74 0h-66l112 351q14 44 34 65.5t61 21.5q36 0 54.5 -21.5t31.5 -61.5l117 -355h-144l-25 80h-148zM176 316l-55 -176h109l-52 176h-2zM178 566q0 -20 -15.5 -35.5t-35.5 -15.5t-35.5 15.5t-15.5 35.5t15.5 35.5t35.5 15.5t35.5 -15.5t15.5 -35.5zM345 566
q0 -20 -15.5 -35.5t-35.5 -15.5t-35.5 15.5t-15.5 35.5t15.5 35.5t35.5 15.5t35.5 -15.5t15.5 -35.5z" />
    <glyph glyph-name="aring" unicode="&#xe5;" horiz-adv-x="426" 
d="M74 0h-66l112 351q14 44 34 65.5t61 21.5q36 0 54.5 -21.5t31.5 -61.5l117 -355h-144l-25 80h-148zM176 316l-55 -176h109l-52 176h-2zM107 595q0 43 31 74t75 31q43 0 74 -31t31 -74q0 -44 -31 -75t-74 -31t-74.5 31.5t-31.5 74.5zM156 595q0 -23 17 -40t40 -17t39.5 17
t16.5 40t-16.5 39.5t-39.5 16.5t-40 -16.5t-17 -39.5z" />
    <glyph glyph-name="ae" unicode="&#xe6;" horiz-adv-x="667" 
d="M275 342l-104 -172h150v169q0 35 -13 35q-14 0 -33 -32zM69 0h-75l230 389q17 28 37.5 36.5t57.5 8.5h294v-64h-115q-18 0 -25.5 -7t-7.5 -25v-90h134v-64h-134v-89q0 -18 6.5 -24.5t25.5 -6.5h123v-64h-216q-37 0 -60 15t-23 46v49h-185z" />
    <glyph glyph-name="ccedilla" unicode="&#xe7;" horiz-adv-x="463" 
d="M422 331l-59 -29q-16 37 -35.5 56.5t-54.5 19.5t-62 -41t-27 -120q0 -82 20.5 -121.5t68.5 -39.5q37 0 59 22.5t41 65.5l54 -30q-20 -54 -62.5 -84.5t-98.5 -32.5l-13 -41q42 3 72.5 -13t30.5 -56q0 -34 -22 -54.5t-49 -27t-60 -6.5q-53 0 -119 33l21 36q49 -32 93 -32
q24 0 42 11t18 34q0 38 -46 38q-19 0 -27 -6l-5 6l33 79q-93 5 -149 61t-56 151q0 98 57 163t154 65q131 0 181 -107z" />
    <glyph glyph-name="egrave" unicode="&#xe8;" horiz-adv-x="407" 
d="M346 248v-64h-136v-90q0 -30 36 -30h123v-64h-223q-35 0 -57.5 23.5t-22.5 62.5v255q0 43 28.5 68t69.5 25h198v-64h-126q-26 0 -26 -39v-83h136zM286 507h-60l-137 141h97z" />
    <glyph glyph-name="eacute" unicode="&#xe9;" horiz-adv-x="407" 
d="M346 248v-64h-136v-90q0 -30 36 -30h123v-64h-223q-35 0 -57.5 23.5t-22.5 62.5v255q0 43 28.5 68t69.5 25h198v-64h-126q-26 0 -26 -39v-83h136zM157 507l92 141h102l-137 -141h-57z" />
    <glyph glyph-name="ecircumflex" unicode="&#xea;" horiz-adv-x="407" 
d="M346 248v-64h-136v-90q0 -30 36 -30h123v-64h-223q-35 0 -57.5 23.5t-22.5 62.5v255q0 43 28.5 68t69.5 25h198v-64h-126q-26 0 -26 -39v-83h136zM80 507l92 141h93l96 -141h-60l-81 92l-80 -92h-60z" />
    <glyph glyph-name="edieresis" unicode="&#xeb;" horiz-adv-x="407" 
d="M346 248v-64h-136v-90q0 -30 36 -30h123v-64h-223q-35 0 -57.5 23.5t-22.5 62.5v255q0 43 28.5 68t69.5 25h198v-64h-126q-26 0 -26 -39v-83h136zM186 566q0 -20 -15.5 -35.5t-35.5 -15.5t-35.5 15.5t-15.5 35.5t15.5 35.5t35.5 15.5t35.5 -15.5t15.5 -35.5zM353 566
q0 -20 -15.5 -35.5t-35.5 -15.5t-35.5 15.5t-15.5 35.5t15.5 35.5t35.5 15.5t35.5 -15.5t15.5 -35.5z" />
    <glyph glyph-name="igrave" unicode="&#xec;" 
d="M67 0v434h144v-434h-144zM204 507h-60l-137 141h97z" />
    <glyph glyph-name="iacute" unicode="&#xed;" 
d="M67 0v434h144v-434h-144zM75 507l92 141h102l-137 -141h-57z" />
    <glyph glyph-name="icircumflex" unicode="&#xee;" 
d="M67 0v434h144v-434h-144zM-2 507l92 141h93l96 -141h-60l-81 92l-80 -92h-60z" />
    <glyph glyph-name="idieresis" unicode="&#xef;" 
d="M67 0v434h144v-434h-144zM104 566q0 -20 -15.5 -35.5t-35.5 -15.5t-35.5 15.5t-15.5 35.5t15.5 35.5t35.5 15.5t35.5 -15.5t15.5 -35.5zM271 566q0 -20 -15.5 -35.5t-35.5 -15.5t-35.5 15.5t-15.5 35.5t15.5 35.5t35.5 15.5t35.5 -15.5t15.5 -35.5z" />
    <glyph glyph-name="eth" unicode="&#xf0;" horiz-adv-x="500" 
d="M183 217q0 -37 2 -63t8.5 -52.5t21 -40t35.5 -13.5t35.5 13.5t21 40t8.5 52.5t2 63t-2 63t-8.5 52.5t-21 40t-35.5 13.5t-35.5 -13.5t-21 -40t-8.5 -52.5t-2 -63zM96 538l102 51q-43 57 -70 79l58 32q56 -43 88 -73l104 51l26 -42l-92 -46q159 -161 159 -338
q0 -102 -56.5 -179t-164.5 -77q-92 0 -156.5 64t-64.5 157t64.5 157t156.5 64q18 0 32 -4q-12 58 -55 114l-105 -52z" />
    <glyph glyph-name="ntilde" unicode="&#xf1;" horiz-adv-x="463" 
d="M401 438v-370q0 -72 -53 -72q-38 0 -60 36l-152 246h-2v-278h-72v357q0 81 75 81q30 0 49 -13.5t37 -42.5l104 -165h2v221h72zM115 500h-37q19 106 106 106q13 0 61 -11q44 -12 56 -12q33 0 52 40h30q0 -46 -28.5 -75t-74.5 -29q-21 0 -61 12q-44 11 -57 11
q-14 0 -28 -13.5t-19 -28.5z" />
    <glyph glyph-name="ograve" unicode="&#xf2;" horiz-adv-x="500" 
d="M29 217q0 93 64.5 157t156.5 64t156.5 -64t64.5 -157t-64.5 -157t-156.5 -64t-156.5 64t-64.5 157zM183 217q0 -37 2 -63t8.5 -52.5t21 -40t35.5 -13.5t35.5 13.5t21 40t8.5 52.5t2 63t-2 63t-8.5 52.5t-21 40t-35.5 13.5t-35.5 -13.5t-21 -40t-8.5 -52.5t-2 -63z
M315 507h-60l-137 141h97z" />
    <glyph glyph-name="oacute" unicode="&#xf3;" horiz-adv-x="500" 
d="M29 217q0 93 64.5 157t156.5 64t156.5 -64t64.5 -157t-64.5 -157t-156.5 -64t-156.5 64t-64.5 157zM183 217q0 -37 2 -63t8.5 -52.5t21 -40t35.5 -13.5t35.5 13.5t21 40t8.5 52.5t2 63t-2 63t-8.5 52.5t-21 40t-35.5 13.5t-35.5 -13.5t-21 -40t-8.5 -52.5t-2 -63z
M186 507l92 141h102l-137 -141h-57z" />
    <glyph glyph-name="ocircumflex" unicode="&#xf4;" horiz-adv-x="500" 
d="M29 217q0 93 64.5 157t156.5 64t156.5 -64t64.5 -157t-64.5 -157t-156.5 -64t-156.5 64t-64.5 157zM183 217q0 -37 2 -63t8.5 -52.5t21 -40t35.5 -13.5t35.5 13.5t21 40t8.5 52.5t2 63t-2 63t-8.5 52.5t-21 40t-35.5 13.5t-35.5 -13.5t-21 -40t-8.5 -52.5t-2 -63z
M109 507l92 141h93l96 -141h-60l-81 92l-80 -92h-60z" />
    <glyph glyph-name="otilde" unicode="&#xf5;" horiz-adv-x="500" 
d="M29 217q0 93 64.5 157t156.5 64t156.5 -64t64.5 -157t-64.5 -157t-156.5 -64t-156.5 64t-64.5 157zM183 217q0 -37 2 -63t8.5 -52.5t21 -40t35.5 -13.5t35.5 13.5t21 40t8.5 52.5t2 63t-2 63t-8.5 52.5t-21 40t-35.5 13.5t-35.5 -13.5t-21 -40t-8.5 -52.5t-2 -63z
M130 500h-37q19 106 106 106q13 0 61 -11q44 -12 56 -12q33 0 52 40h30q0 -46 -28.5 -75t-74.5 -29q-21 0 -61 12q-44 11 -57 11q-14 0 -28 -13.5t-19 -28.5z" />
    <glyph glyph-name="odieresis" unicode="&#xf6;" horiz-adv-x="500" 
d="M29 217q0 93 64.5 157t156.5 64t156.5 -64t64.5 -157t-64.5 -157t-156.5 -64t-156.5 64t-64.5 157zM183 217q0 -37 2 -63t8.5 -52.5t21 -40t35.5 -13.5t35.5 13.5t21 40t8.5 52.5t2 63t-2 63t-8.5 52.5t-21 40t-35.5 13.5t-35.5 -13.5t-21 -40t-8.5 -52.5t-2 -63z
M215 566q0 -20 -15.5 -35.5t-35.5 -15.5t-35.5 15.5t-15.5 35.5t15.5 35.5t35.5 15.5t35.5 -15.5t15.5 -35.5zM382 566q0 -20 -15.5 -35.5t-35.5 -15.5t-35.5 15.5t-15.5 35.5t15.5 35.5t35.5 15.5t35.5 -15.5t15.5 -35.5z" />
    <glyph glyph-name="divide" unicode="&#xf7;" horiz-adv-x="600" 
d="M517 169h-434v96h434v-96zM300 473q30 0 53.5 -23t23.5 -54t-23.5 -54t-53.5 -23t-53.5 23t-23.5 54t23.5 54t53.5 23zM300 115q30 0 53.5 -23t23.5 -54t-23.5 -54t-53.5 -23t-53.5 23t-23.5 54t23.5 54t53.5 23z" />
    <glyph glyph-name="oslash" unicode="&#xf8;" horiz-adv-x="500" 
d="M185 162l122 162q-13 62 -57 62q-21 0 -35.5 -13.5t-21 -40t-8.5 -52.5t-2 -63q0 -38 2 -55zM316 253l-119 -157q14 -48 53 -48q21 0 35.5 13.5t21 40t8.5 52.5t2 63q0 25 -1 36zM143 24l-54 -71h-62l75 100q-73 65 -73 164q0 93 64.5 157t156.5 64q67 0 118 -34l58 77
h62l-81 -107q64 -64 64 -157t-64.5 -157t-156.5 -64q-60 0 -107 28z" />
    <glyph glyph-name="ugrave" unicode="&#xf9;" horiz-adv-x="481" 
d="M62 434h144v-258q0 -47 15 -73.5t58 -26.5q32 0 50 22t18 55v281h72v-290q0 -72 -48.5 -110t-128.5 -38q-180 0 -180 179v259zM306 507h-60l-137 141h97z" />
    <glyph glyph-name="uacute" unicode="&#xfa;" horiz-adv-x="481" 
d="M62 434h144v-258q0 -47 15 -73.5t58 -26.5q32 0 50 22t18 55v281h72v-290q0 -72 -48.5 -110t-128.5 -38q-180 0 -180 179v259zM177 507l92 141h102l-137 -141h-57z" />
    <glyph glyph-name="ucircumflex" unicode="&#xfb;" horiz-adv-x="481" 
d="M62 434h144v-258q0 -47 15 -73.5t58 -26.5q32 0 50 22t18 55v281h72v-290q0 -72 -48.5 -110t-128.5 -38q-180 0 -180 179v259zM100 507l92 141h93l96 -141h-60l-81 92l-80 -92h-60z" />
    <glyph glyph-name="udieresis" unicode="&#xfc;" horiz-adv-x="481" 
d="M62 434h144v-258q0 -47 15 -73.5t58 -26.5q32 0 50 22t18 55v281h72v-290q0 -72 -48.5 -110t-128.5 -38q-180 0 -180 179v259zM206 566q0 -20 -15.5 -35.5t-35.5 -15.5t-35.5 15.5t-15.5 35.5t15.5 35.5t35.5 15.5t35.5 -15.5t15.5 -35.5zM373 566q0 -20 -15.5 -35.5
t-35.5 -15.5t-35.5 15.5t-15.5 35.5t15.5 35.5t35.5 15.5t35.5 -15.5t15.5 -35.5z" />
    <glyph glyph-name="yacute" unicode="&#xfd;" horiz-adv-x="426" 
d="M65 -198l113 266l-168 366h159l86 -190l83 190h78l-274 -632h-77zM149 507l92 141h102l-137 -141h-57z" />
    <glyph glyph-name="thorn" unicode="&#xfe;" horiz-adv-x="537" 
d="M210 -198h-144v898h144v-266q145 0 219 -58t74 -168q0 -65 -20 -108t-59.5 -64t-84 -28.5t-107.5 -7.5h-22v-198zM210 374v-314h21q47 0 74.5 25t35.5 58t8 80q0 65 -28.5 108t-90.5 43h-20z" />
    <glyph glyph-name="ydieresis" unicode="&#xff;" horiz-adv-x="426" 
d="M65 -198l113 266l-168 366h159l86 -190l83 190h78l-274 -632h-77zM178 566q0 -20 -15.5 -35.5t-35.5 -15.5t-35.5 15.5t-15.5 35.5t15.5 35.5t35.5 15.5t35.5 -15.5t15.5 -35.5zM345 566q0 -20 -15.5 -35.5t-35.5 -15.5t-35.5 15.5t-15.5 35.5t15.5 35.5t35.5 15.5
t35.5 -15.5t15.5 -35.5z" />
    <glyph glyph-name="dotlessi" unicode="&#x131;" 
d="M67 0v434h144v-434h-144z" />
    <glyph glyph-name="Lslash" unicode="&#x141;" horiz-adv-x="519" 
d="M88 356v292h182v-235l102 31v-88l-102 -31v-237h239v-88h-421v268l-72 -22v88z" />
    <glyph glyph-name="lslash" unicode="&#x142;" horiz-adv-x="315" 
d="M67 700h144v-235l73 43v-70l-73 -43v-271q0 -35 7.5 -47.5t30.5 -12.5h61v-64h-143q-100 0 -100 87v222l-73 -43v70l73 43v321z" />
    <glyph glyph-name="OE" unicode="&#x152;" horiz-adv-x="1000" 
d="M579 593v55h354v-88h-221v-183h209v-88h-209v-201h230v-88h-363v60q-74 -78 -209 -78q-143 0 -236.5 94t-93.5 248t93.5 248t236.5 94q69 0 118 -14.5t91 -58.5zM530 258v176q0 75 -41.5 114.5t-104.5 39.5q-146 0 -146 -263q0 -128 36.5 -196.5t109.5 -68.5
q60 0 103 44.5t43 153.5z" />
    <glyph glyph-name="oe" unicode="&#x153;" horiz-adv-x="667" 
d="M633 434v-64h-120q-23 0 -33 -8t-10 -31v-83h151v-64h-151v-78q0 -14 1.5 -22t9 -14t21.5 -6h141v-64h-228q-36 0 -55 36q-38 -40 -120 -40q-105 0 -160.5 63t-55.5 167q0 91 57.5 151.5t147.5 60.5q86 0 132 -42q25 38 59 38h213zM326 120v194q0 72 -74 72
q-36 0 -55 -38t-19 -131t19 -131t55 -38q74 0 74 72z" />
    <glyph glyph-name="Scaron" unicode="&#x160;" horiz-adv-x="537" 
d="M34 112l91 56q49 -98 118 -98q39 0 61.5 21t22.5 58q0 31 -29 54t-70.5 41t-83 40t-70.5 63t-29 99q0 99 62 159.5t162 60.5q77 0 127.5 -30.5t91.5 -96.5l-73 -57q-27 47 -53.5 71.5t-70.5 24.5q-38 0 -57 -22t-19 -60q0 -31 29.5 -53t72 -39t85 -39t72 -64t29.5 -102
q0 -100 -66 -158.5t-168 -58.5q-82 0 -139 30.5t-96 99.5zM217 715l-95 141h60l80 -91l80 91h61l-96 -141h-90z" />
    <glyph glyph-name="scaron" unicode="&#x161;" horiz-adv-x="389" 
d="M317 370h-99q-50 0 -50 -36q0 -22 20 -32.5t48.5 -16t57 -15.5t48.5 -39.5t20 -78.5q0 -73 -43.5 -112.5t-113.5 -39.5h-156v64h122q35 0 50.5 9t15.5 43q0 22 -21.5 33t-52 17.5t-61 17t-52 38t-21.5 73.5q0 66 41.5 102.5t108.5 36.5h138v-64zM149 507l-95 141h60
l80 -91l80 91h61l-96 -141h-90z" />
    <glyph glyph-name="Ydieresis" unicode="&#x178;" horiz-adv-x="574" 
d="M344 411l135 237h95l-188 -326v-322h-182v310l-195 338h202zM246 774q0 -20 -15.5 -35.5t-35.5 -15.5t-35.5 15.5t-15.5 35.5t15.5 35.5t35.5 15.5t35.5 -15.5t15.5 -35.5zM413 774q0 -20 -15.5 -35.5t-35.5 -15.5t-35.5 15.5t-15.5 35.5t15.5 35.5t35.5 15.5t35.5 -15.5
t15.5 -35.5z" />
    <glyph glyph-name="Zcaron" unicode="&#x17d;" horiz-adv-x="611" 
d="M44 560v88h553l-317 -560h296v-88h-554l321 560h-299zM254 715l-95 141h60l80 -91l80 91h61l-96 -141h-90z" />
    <glyph glyph-name="zcaron" unicode="&#x17e;" horiz-adv-x="407" 
d="M387 0h-348v27l160 343h-164v64h279q42 0 42 -47q0 -17 -8 -34l-133 -289h172v-64zM158 507l-95 141h60l80 -91l80 91h61l-96 -141h-90z" />
    <glyph glyph-name="florin" unicode="&#x192;" horiz-adv-x="611" 
d="M15 -149l8 60q43 -29 72 -29q52 0 61 52l63 355h-94v70h106l46 222q11 56 48.5 87.5t95.5 31.5q76 0 161 -50l-11 -54l-18.5 7.5l-21 8.5t-19 5.5t-21.5 2.5q-20 0 -36 -14.5t-21 -44.5l-34 -202h105v-70h-114l-73 -358q-13 -66 -48.5 -97.5t-101.5 -31.5q-61 0 -153 49z
" />
    <glyph glyph-name="circumflex" unicode="&#x2c6;" 
d="M-2 507l92 141h93l96 -141h-60l-81 92l-80 -92h-60z" />
    <glyph glyph-name="caron" unicode="&#x2c7;" 
d="M93 507l-95 141h60l80 -91l80 91h61l-96 -141h-90z" />
    <glyph glyph-name="uni02C9" unicode="&#x2c9;" 
d="M275 523h-273v67h273v-67z" />
    <glyph glyph-name="breve" unicode="&#x2d8;" 
d="M-8 648h25q7 -52 65 -52h122q25 0 36.5 12.5t21.5 39.5h25q-2 -62 -44 -94.5t-105 -32.5q-65 0 -105 32t-41 95z" />
    <glyph glyph-name="dotaccent" unicode="&#x2d9;" 
d="M190 566q0 -20 -15.5 -35.5t-35.5 -15.5t-35.5 15.5t-15.5 35.5t15.5 35.5t35.5 15.5t35.5 -15.5t15.5 -35.5z" />
    <glyph glyph-name="ring" unicode="&#x2da;" 
d="M33 595q0 43 31 74t75 31q43 0 74 -31t31 -74q0 -44 -31 -75t-74 -31t-74.5 31.5t-31.5 74.5zM82 595q0 -23 17 -40t40 -17t39.5 17t16.5 40t-16.5 39.5t-39.5 16.5t-40 -16.5t-17 -39.5z" />
    <glyph glyph-name="ogonek" unicode="&#x2db;" 
d="M265 -123l20 -18q-90 -60 -140 -60q-45 0 -74.5 24.5t-29.5 67.5q0 92 228 130v-12q-152 -47 -152 -125q0 -23 14.5 -35.5t37.5 -12.5q33 0 96 41z" />
    <glyph glyph-name="tilde" unicode="&#x2dc;" 
d="M19 500h-37q19 106 106 106q13 0 61 -11q44 -12 56 -12q33 0 52 40h30q0 -46 -28.5 -75t-74.5 -29q-21 0 -61 12q-44 11 -57 11q-14 0 -28 -13.5t-19 -28.5z" />
    <glyph glyph-name="hungarumlaut" unicode="&#x2dd;" 
d="M5 507l74 141h119l-129 -141h-64zM190 507l74 141h119l-129 -141h-64z" />
    <glyph glyph-name="uni03A9" unicode="&#x3a9;" horiz-adv-x="798" 
d="M762 181l-31 -181h-287l-11 26l15 32q16 31 19.5 38.5l18 38.5t19.5 45.5l15 43.5t14 49.5t7.5 46.5t3.5 50q0 257 -149 257q-71 0 -107 -60t-36 -200q0 -58 19.5 -126.5t39 -111t50.5 -102.5l-9 -27h-290l-27 181h39q17 -42 33.5 -55t53.5 -13h93q-38 24 -63 43.5
t-56.5 52.5t-48 75t-16.5 92q0 134 91.5 214t237.5 80q147 0 236.5 -78.5t89.5 -210.5q0 -44 -16 -84t-48 -74.5t-58.5 -56.5t-69.5 -53h108q32 0 48 13t32 55h40z" />
    <glyph glyph-name="uni03BC" unicode="&#x3bc;" horiz-adv-x="481" 
d="M62 434h144v-258q0 -47 15 -73.5t58 -26.5q32 0 50 22t18 55v281h72v-290q0 -72 -48.5 -110t-128.5 -38q-21 0 -36 3v-197h-144v632z" />
    <glyph glyph-name="pi" unicode="&#x3c0;" horiz-adv-x="639" 
d="M582 479l33 -9q-3 -34 -17 -77.5t-26 -57.5q-21 -7 -67 -7q-6 -68 -5 -171q1 -81 42 -81q15 0 43 15l14 -32q-21 -30 -60 -51t-78 -21q-119 0 -119 136q0 50 10 207q-23 0 -47 0.5t-39.5 1t-31.5 0.5v-7q0 -235 -68 -320q-46 -15 -78 -18l-10 25q50 68 74.5 157.5
t24.5 164.5q-44 1 -71.5 -6.5t-63.5 -28.5l-19 35q2 3 11.5 15.5l12.5 16.5t12.5 15.5t14.5 15.5t16 13.5t19.5 13t21.5 9.5t25.5 8.5t29 4t34.5 1.5q170 -2 297 -2q25 0 39 7t26 27z" />
    <glyph glyph-name="endash" unicode="&#x2013;" horiz-adv-x="500" 
d="M0 174v86h500v-86h-500z" />
    <glyph glyph-name="emdash" unicode="&#x2014;" horiz-adv-x="1000" 
d="M0 174v86h1000v-86h-1000z" />
    <glyph glyph-name="quoteleft" unicode="&#x2018;" horiz-adv-x="259" 
d="M60 448l143 218h15l-17 -262q-2 -37 -24.5 -65.5t-57.5 -28.5q-34 0 -56 20.5t-22 54.5q0 35 19 63z" />
    <glyph glyph-name="quoteright" unicode="&#x2019;" horiz-adv-x="259" 
d="M56 310h-15l17 262q2 37 24.5 65.5t57.5 28.5q34 0 56 -20.5t22 -54.5q0 -35 -19 -63z" />
    <glyph glyph-name="quotesinglbase" unicode="&#x201a;" horiz-adv-x="259" 
d="M56 -198h-15l17 262q2 37 24.5 65.5t57.5 28.5q34 0 56 -20.5t22 -54.5q0 -35 -19 -63z" />
    <glyph glyph-name="quotedblleft" unicode="&#x201c;" horiz-adv-x="463" 
d="M264 448l143 218h15l-17 -262q-2 -37 -24.5 -65.5t-57.5 -28.5q-34 0 -56 20.5t-22 54.5q0 35 19 63zM42 448l143 218h15l-17 -262q-2 -37 -24.5 -65.5t-57.5 -28.5q-34 0 -56 20.5t-22 54.5q0 35 19 63z" />
    <glyph glyph-name="quotedblright" unicode="&#x201d;" horiz-adv-x="463" 
d="M56 310h-15l17 262q2 37 24.5 65.5t57.5 28.5q34 0 56 -20.5t22 -54.5q0 -35 -19 -63zM278 310h-15l17 262q2 37 24.5 65.5t57.5 28.5q34 0 56 -20.5t22 -54.5q0 -35 -19 -63z" />
    <glyph glyph-name="quotedblbase" unicode="&#x201e;" horiz-adv-x="463" 
d="M56 -198h-15l17 262q2 37 24.5 65.5t57.5 28.5q34 0 56 -20.5t22 -54.5q0 -35 -19 -63zM278 -198h-15l17 262q2 37 24.5 65.5t57.5 28.5q34 0 56 -20.5t22 -54.5q0 -35 -19 -63z" />
    <glyph glyph-name="dagger" unicode="&#x2020;" horiz-adv-x="500" 
d="M183 402h-174v76h174v170h134v-170h174v-76h-174v-551h-134v551z" />
    <glyph glyph-name="daggerdbl" unicode="&#x2021;" horiz-adv-x="500" 
d="M183 14h-174v76h174v318h-174v76h174v164h134v-164h174v-76h-174v-318h174v-76h-174v-164h-134v164z" />
    <glyph glyph-name="bullet" unicode="&#x2022;" horiz-adv-x="500" 
d="M88 324q0 72 44.5 117t117.5 45t117.5 -45t44.5 -117t-44.5 -117t-117.5 -45t-117.5 45t-44.5 117z" />
    <glyph glyph-name="ellipsis" unicode="&#x2026;" horiz-adv-x="1000" 
d="M167 153q33 0 56.5 -24t23.5 -59q0 -32 -23.5 -54.5t-56.5 -22.5q-34 0 -57 22.5t-23 54.5q0 35 23 59t57 24zM500 153q33 0 56.5 -24t23.5 -59q0 -32 -23.5 -54.5t-56.5 -22.5q-34 0 -57 22.5t-23 54.5q0 35 23 59t57 24zM833 153q33 0 56.5 -24t23.5 -59
q0 -32 -23.5 -54.5t-56.5 -22.5q-34 0 -57 22.5t-23 54.5q0 35 23 59t57 24z" />
    <glyph glyph-name="perthousand" unicode="&#x2030;" horiz-adv-x="1000" 
d="M841 262q-42 0 -42 -109t42 -109t42 109t-42 109zM123 -10h-69l453 686h72zM841 316q65 0 109.5 -48.5t44.5 -114.5t-44.5 -114.5t-109.5 -48.5t-109.5 48.5t-44.5 114.5t44.5 114.5t109.5 48.5zM158 676q65 0 109.5 -48.5t44.5 -114.5t-44.5 -114.5t-109.5 -48.5
t-109.5 48.5t-44.5 114.5t44.5 114.5t109.5 48.5zM158 622q-42 0 -42 -109t42 -109t42 109t-42 109zM488 316q65 0 109.5 -48.5t44.5 -114.5t-44.5 -114.5t-109.5 -48.5t-109.5 48.5t-44.5 114.5t44.5 114.5t109.5 48.5zM488 262q-42 0 -42 -109t42 -109t42 109t-42 109z
" />
    <glyph glyph-name="guilsinglleft" unicode="&#x2039;" horiz-adv-x="333" 
d="M258 24l-183 120v146l183 120v-130l-99 -63l99 -63v-130z" />
    <glyph glyph-name="guilsinglright" unicode="&#x203a;" horiz-adv-x="333" 
d="M75 410l183 -120v-146l-183 -120v130l99 63l-99 63v130z" />
    <glyph glyph-name="fraction" unicode="&#x2044;" horiz-adv-x="167" 
d="M-96 -10h-71l430 686h71z" />
    <glyph glyph-name="Euro" unicode="&#x20ac;" horiz-adv-x="611" 
d="M606 602l-30 -90q-65 73 -154 73q-71 0 -111.5 -46t-55.5 -119h288l-23 -70h-273v-22q0 -17 2 -51h245l-23 -70h-209q41 -142 169 -142q79 0 140 48v-92q-67 -39 -166 -39q-120 0 -205 60.5t-115 164.5h-70l23 70h33q-1 13 -1 40q0 22 1 33h-56l23 70h44q29 112 115 179
t209 67q111 0 200 -64z" />
    <glyph glyph-name="afii61289" unicode="&#x2113;" horiz-adv-x="497" 
d="M449 159l28 -27q-82 -141 -213 -141q-87 0 -128 41q-22 25 -33 56.5t-11 97.5v43l-61 -34l-15 37l76 48v131q0 97 12.5 149t44.5 93q57 72 138 72q61 0 91.5 -41t30.5 -102q0 -79 -39.5 -140t-127.5 -132v-69q0 -86 20 -124t68 -38q62 0 119 80zM242 467v-94
q79 88 79 207q0 103 -41 103q-25 0 -31.5 -41.5t-6.5 -174.5z" />
    <glyph glyph-name="trademark" unicode="&#x2122;" horiz-adv-x="990" 
d="M602 648l87 -231l86 231h142v-381h-98v260h-2l-91 -260h-75l-90 260h-2v-260h-98v381h141zM388 648v-80h-106v-301h-104v301h-105v80h315z" />
    <glyph glyph-name="Omega" unicode="&#x2126;" horiz-adv-x="798" 
d="M762 181l-31 -181h-287l-11 26l15 32q16 31 19.5 38.5l18 38.5t19.5 45.5l15 43.5t14 49.5t7.5 46.5t3.5 50q0 257 -149 257q-71 0 -107 -60t-36 -200q0 -58 19.5 -126.5t39 -111t50.5 -102.5l-9 -27h-290l-27 181h39q17 -42 33.5 -55t53.5 -13h93q-38 24 -63 43.5
t-56.5 52.5t-48 75t-16.5 92q0 134 91.5 214t237.5 80q147 0 236.5 -78.5t89.5 -210.5q0 -44 -16 -84t-48 -74.5t-58.5 -56.5t-69.5 -53h108q32 0 48 13t32 55h40z" />
    <glyph glyph-name="estimated" unicode="&#x212e;" horiz-adv-x="826" 
d="M793 323h-616q-5 0 -5 -4v-187q0 -11 8 -21q98 -101 233 -101q147 0 245 113h55q-52 -61 -131 -96.5t-170 -35.5q-157 0 -268.5 100t-111.5 241q0 142 111.5 242t268.5 100q158 0 269.5 -100t111.5 -242v-9zM653 347v188q0 13 -9 22q-99 97 -231 97q-134 0 -232 -100
q-9 -9 -9 -23v-184q0 -6 5 -6h472q4 0 4 6z" />
    <glyph glyph-name="partialdiff" unicode="&#x2202;" horiz-adv-x="601" 
d="M284 424h1q36 0 70 -14.5t53 -39.5q11 62 12 108q4 91 -24 142q-32 53 -96 53q-73 0 -162 -77q-18 0 -40.5 40.5t-11.5 64.5q80 38 161 38q159 0 245 -141q60 -99 60 -224q0 -137 -56 -236q-81 -147 -245 -147q-95 0 -152 54.5t-57 145.5q0 100 66 164q69 69 176 69z
M325 369h-1q-53 0 -85 -53q-42 -71 -42 -192q-2 -91 61 -91q46 0 89 95q33 74 50 190q-25 51 -72 51z" />
    <glyph glyph-name="Delta" unicode="&#x2206;" horiz-adv-x="707" 
d="M670 0h-634v42l275 612l74 16l285 -628v-42zM474 71l-179 412l-177 -412h356z" />
    <glyph glyph-name="product" unicode="&#x220f;" horiz-adv-x="781" 
d="M752 676v-38q-66 -5 -81 -21.5t-15 -80.5v-470q0 -66 15 -83t81 -22v-39h-336v39q55 4 66 19.5t11 85.5v525q0 24 -7 30t-32 6h-131q-25 0 -30.5 -5.5t-5.5 -29.5v-526q0 -69 9.5 -85t60.5 -20v-39h-329v39q65 5 80.5 22t15.5 83v470q0 64 -16 80.5t-83 21.5v38h727z" />
    <glyph glyph-name="summation" unicode="&#x2211;" horiz-adv-x="613" 
d="M590 149l-54 -236h-511v40l222 293l-215 389v41h503q6 -96 13 -188l-39 -10q-20 70 -44 110q-15 25 -35 34t-74 9h-133l158 -285l-228 -306h240q71 0 94 17t62 102z" />
    <glyph glyph-name="minus" unicode="&#x2212;" horiz-adv-x="600" 
d="M83 169v96h434v-96h-434z" />
    <glyph glyph-name="uni2215" unicode="&#x2215;" horiz-adv-x="167" 
d="M-96 -10h-71l430 686h71z" />
    <glyph glyph-name="uni2219" unicode="&#x2219;" horiz-adv-x="305" 
d="M147 297q33 0 56.5 -24t23.5 -59q0 -32 -23.5 -54.5t-56.5 -22.5q-34 0 -57 22.5t-23 54.5q0 35 23 59t57 24z" />
    <glyph glyph-name="radical" unicode="&#x221a;" horiz-adv-x="591" 
d="M586 833l-185 -990l-38 -15l-220 515l-91 -41l-15 47l210 93l142 -353h2l137 755z" />
    <glyph glyph-name="infinity" unicode="&#x221e;" horiz-adv-x="767" 
d="M722 273v-1q0 -82 -49 -130.5t-116 -48.5q-99 0 -174 106q-42 -53 -82.5 -79.5t-95.5 -26.5q-66 0 -114 48t-48 125q0 78 49 127.5t122 49.5q54 0 95 -25t80 -77q1 1 11.5 13.5t13.5 15.5t14 15t17.5 16t18 13t21 12.5l22.5 8.5t26.5 6.5t28.5 1.5q67 0 113.5 -47
t46.5 -123zM215 178h2q33 0 61 22.5t59 62.5l-22 31.5t-20 24.5t-24.5 23t-25 12t-32.5 6q-37 0 -60 -25.5t-23 -68.5q0 -36 25 -62t60 -26zM553 360h-1q-8 0 -16 -2t-14 -4t-14 -7l-13 -8t-12.5 -10.5l-11 -11t-11.5 -12.5t-10 -11.5l-10 -12.5t-9 -11q40 -54 67 -73
t60 -19q35 0 56 28t21 60q0 40 -22.5 67t-59.5 27z" />
    <glyph glyph-name="integral" unicode="&#x222b;" horiz-adv-x="436" 
d="M168 -26l-22 377q-6 109 5 192t31.5 129.5t50.5 76t56 39t53 9.5q32 0 59 -17t27 -46q0 -32 -20.5 -50.5t-46.5 -18.5q-19 0 -30 18.5t-18 37t-15 18.5q-9 0 -13.5 -10t-7 -40.5t1.5 -86.5l19 -351q13 -231 -46.5 -347t-155.5 -116q-34 0 -59.5 19t-25.5 46
q-1 30 25 51.5t54 21.5q16 0 26 -20t16.5 -40.5t14.5 -20.5q29 0 21 129z" />
    <glyph glyph-name="approxequal" unicode="&#x2248;" horiz-adv-x="560" 
d="M468 450l60 -58q-66 -103 -148 -103q-51 0 -112 37q-52 31 -83 31q-30 0 -51 -17t-47 -51l-59 58q24 43 68.5 72.5t92.5 29.5q52 0 103 -32l34.5 -20.5t22.5 -10t27 -4.5q44 0 92 68zM468 256l60 -58q-66 -103 -149 -103q-50 0 -111 37q-53 32 -83 32q-21 0 -40.5 -11.5
t-29 -22.5l-28.5 -34l-59 57q24 43 69 72.5t92 29.5q48 0 102 -31l20 -12.5t21.5 -12.5t18.5 -7t24 -4q26 0 46.5 16t46.5 52z" />
    <glyph glyph-name="notequal" unicode="&#x2260;" horiz-adv-x="560" 
d="M422 496l-34 -77h126v-91h-163l-53 -120h216v-92h-254l-48 -110l-74 31l35 79h-126v92h164l52 120h-216v91h253l48 108z" />
    <glyph glyph-name="lessequal" unicode="&#x2264;" horiz-adv-x="560" 
d="M512 112l-462 212v99l462 212v-103l-368 -157v-2l368 -158v-103zM515 -15h-467v94h467v-94z" />
    <glyph glyph-name="greaterequal" unicode="&#x2265;" horiz-adv-x="560" 
d="M51 635l462 -212v-99l-462 -212v103l368 158v2l-368 157v103zM510 -15h-462v94h462v-94z" />
    <glyph glyph-name="lozenge" unicode="&#x25ca;" horiz-adv-x="614" 
d="M570 320l-207 -393h-113l-207 393l210 395h111zM464 320l-155 304h-4l-155 -304l156 -307h3z" />
    </font>
</defs>
</svg>
